<mxfile host="app.diagrams.net" modified="2021-05-04T09:07:20.586Z" agent="5.0 (Windows)" etag="e3r4-g8S8ahNZVLaU8qI" version="14.6.9" type="github">
  <diagram id="ygdzen8UIL2z9Q3izg6u" name="Page-1">
    <mxGraphModel dx="1422" dy="763" grid="1" gridSize="10" guides="1" tooltips="1" connect="1" arrows="1" fold="1" page="1" pageScale="1" pageWidth="827" pageHeight="1169" math="0" shadow="0">
      <root>
        <mxCell id="0" />
        <mxCell id="1" parent="0" />
        <mxCell id="fhKEaw7kfPtzZ2sWskrr-1" value="Customer" style="shape=umlActor;verticalLabelPosition=bottom;verticalAlign=top;html=1;outlineConnect=0;" parent="1" vertex="1">
          <mxGeometry x="100" y="200" width="40" height="60" as="geometry" />
        </mxCell>
        <mxCell id="fhKEaw7kfPtzZ2sWskrr-2" value="Admin" style="shape=umlActor;verticalLabelPosition=bottom;verticalAlign=top;html=1;outlineConnect=0;" parent="1" vertex="1">
          <mxGeometry x="100" y="485" width="30" height="60" as="geometry" />
        </mxCell>
        <mxCell id="fhKEaw7kfPtzZ2sWskrr-5" value="&lt;br&gt;&lt;br&gt;&lt;br&gt;&lt;br&gt;&lt;br&gt;&lt;br&gt;&lt;br&gt;&lt;br&gt;" style="rounded=0;whiteSpace=wrap;html=1;fillColor=none;" parent="1" vertex="1">
          <mxGeometry x="230" y="120" width="440" height="620" as="geometry" />
        </mxCell>
        <mxCell id="fhKEaw7kfPtzZ2sWskrr-6" value="System Boundary" style="text;html=1;align=center;verticalAlign=middle;resizable=0;points=[];autosize=1;strokeColor=none;" parent="1" vertex="1">
          <mxGeometry x="409" y="100" width="110" height="20" as="geometry" />
        </mxCell>
        <mxCell id="fhKEaw7kfPtzZ2sWskrr-7" value="Create Custom Order" style="ellipse;whiteSpace=wrap;html=1;fillColor=none;" parent="1" vertex="1">
          <mxGeometry x="414" y="150" width="100" height="40" as="geometry" />
        </mxCell>
        <mxCell id="fhKEaw7kfPtzZ2sWskrr-9" value="View my Order" style="ellipse;whiteSpace=wrap;html=1;fillColor=none;" parent="1" vertex="1">
          <mxGeometry x="414" y="270" width="100" height="40" as="geometry" />
        </mxCell>
        <mxCell id="fhKEaw7kfPtzZ2sWskrr-10" value="CRUD Orders" style="ellipse;whiteSpace=wrap;html=1;fillColor=none;" parent="1" vertex="1">
          <mxGeometry x="414" y="625" width="100" height="40" as="geometry" />
        </mxCell>
        <mxCell id="fhKEaw7kfPtzZ2sWskrr-12" value="View Order History" style="ellipse;whiteSpace=wrap;html=1;fillColor=none;" parent="1" vertex="1">
          <mxGeometry x="414" y="505" width="100" height="40" as="geometry" />
        </mxCell>
        <mxCell id="fhKEaw7kfPtzZ2sWskrr-13" value="&lt;span&gt;CRUD&amp;nbsp;&lt;/span&gt;&lt;br&gt;&lt;span&gt;inventory&lt;/span&gt;" style="ellipse;whiteSpace=wrap;html=1;fillColor=none;" parent="1" vertex="1">
          <mxGeometry x="414" y="565" width="100" height="40" as="geometry" />
        </mxCell>
        <mxCell id="fhKEaw7kfPtzZ2sWskrr-17" value="" style="endArrow=classic;html=1;entryX=0;entryY=0.5;entryDx=0;entryDy=0;" parent="1" target="fhKEaw7kfPtzZ2sWskrr-13" edge="1">
          <mxGeometry width="50" height="50" relative="1" as="geometry">
            <mxPoint x="150" y="520" as="sourcePoint" />
            <mxPoint x="200" y="470" as="targetPoint" />
          </mxGeometry>
        </mxCell>
        <mxCell id="fhKEaw7kfPtzZ2sWskrr-18" value="" style="endArrow=classic;html=1;entryX=0;entryY=0.5;entryDx=0;entryDy=0;" parent="1" target="fhKEaw7kfPtzZ2sWskrr-7" edge="1">
          <mxGeometry width="50" height="50" relative="1" as="geometry">
            <mxPoint x="150" y="240" as="sourcePoint" />
            <mxPoint x="200" y="190" as="targetPoint" />
          </mxGeometry>
        </mxCell>
        <mxCell id="fhKEaw7kfPtzZ2sWskrr-22" value="" style="endArrow=classic;html=1;entryX=0;entryY=0.5;entryDx=0;entryDy=0;" parent="1" target="fhKEaw7kfPtzZ2sWskrr-12" edge="1">
          <mxGeometry width="50" height="50" relative="1" as="geometry">
            <mxPoint x="150" y="520" as="sourcePoint" />
            <mxPoint x="420" y="440" as="targetPoint" />
          </mxGeometry>
        </mxCell>
        <mxCell id="fhKEaw7kfPtzZ2sWskrr-24" value="View Carport Drawing" style="ellipse;whiteSpace=wrap;html=1;fillColor=none;" parent="1" vertex="1">
          <mxGeometry x="414" y="210" width="100" height="40" as="geometry" />
        </mxCell>
        <mxCell id="fhKEaw7kfPtzZ2sWskrr-26" value="" style="endArrow=classic;html=1;entryX=0;entryY=0.5;entryDx=0;entryDy=0;" parent="1" target="fhKEaw7kfPtzZ2sWskrr-24" edge="1">
          <mxGeometry width="50" height="50" relative="1" as="geometry">
            <mxPoint x="150" y="240" as="sourcePoint" />
            <mxPoint x="420" y="370" as="targetPoint" />
          </mxGeometry>
        </mxCell>
        <mxCell id="fhKEaw7kfPtzZ2sWskrr-28" value="" style="endArrow=classic;html=1;entryX=0;entryY=0.5;entryDx=0;entryDy=0;" parent="1" target="fhKEaw7kfPtzZ2sWskrr-9" edge="1">
          <mxGeometry width="50" height="50" relative="1" as="geometry">
            <mxPoint x="150" y="240" as="sourcePoint" />
            <mxPoint x="420" y="370" as="targetPoint" />
          </mxGeometry>
        </mxCell>
        <mxCell id="fhKEaw7kfPtzZ2sWskrr-33" value="" style="endArrow=classic;html=1;entryX=0;entryY=0.5;entryDx=0;entryDy=0;" parent="1" target="fhKEaw7kfPtzZ2sWskrr-10" edge="1">
          <mxGeometry width="50" height="50" relative="1" as="geometry">
            <mxPoint x="150" y="520" as="sourcePoint" />
            <mxPoint x="420" y="370" as="targetPoint" />
          </mxGeometry>
        </mxCell>
        <mxCell id="fhKEaw7kfPtzZ2sWskrr-35" value="View Material List" style="ellipse;whiteSpace=wrap;html=1;fillColor=none;" parent="1" vertex="1">
          <mxGeometry x="414" y="320" width="100" height="40" as="geometry" />
        </mxCell>
        <mxCell id="fhKEaw7kfPtzZ2sWskrr-36" value="" style="endArrow=classic;html=1;entryX=0;entryY=0.5;entryDx=0;entryDy=0;" parent="1" target="fhKEaw7kfPtzZ2sWskrr-35" edge="1">
          <mxGeometry width="50" height="50" relative="1" as="geometry">
            <mxPoint x="150" y="240" as="sourcePoint" />
            <mxPoint x="420" y="370" as="targetPoint" />
          </mxGeometry>
        </mxCell>
        <mxCell id="zwA4oIyYL0pUJ5uWJ_54-3" value="test" style="rounded=0;whiteSpace=wrap;html=1;" parent="1" vertex="1">
          <mxGeometry x="380" y="20" width="120" height="60" as="geometry" />
        </mxCell>
        <mxCell id="PxSqtdrrt_EEmlgIxpEL-1" value="" style="shape=cylinder3;whiteSpace=wrap;html=1;boundedLbl=1;backgroundOutline=1;size=15;" vertex="1" parent="1">
          <mxGeometry x="730" y="330" width="60" height="80" as="geometry" />
        </mxCell>
        <mxCell id="PxSqtdrrt_EEmlgIxpEL-2" value="System" style="text;html=1;align=center;verticalAlign=middle;resizable=0;points=[];autosize=1;strokeColor=none;" vertex="1" parent="1">
          <mxGeometry x="730" y="420" width="60" height="20" as="geometry" />
        </mxCell>
        <mxCell id="PxSqtdrrt_EEmlgIxpEL-3" value="Create Material List" style="ellipse;whiteSpace=wrap;html=1;fillColor=none;" vertex="1" parent="1">
          <mxGeometry x="414" y="400" width="100" height="40" as="geometry" />
        </mxCell>
        <mxCell id="PxSqtdrrt_EEmlgIxpEL-4" value="" style="endArrow=classic;html=1;" edge="1" parent="1">
          <mxGeometry width="50" height="50" relative="1" as="geometry">
            <mxPoint x="160" y="520" as="sourcePoint" />
            <mxPoint x="414" y="420" as="targetPoint" />
          </mxGeometry>
        </mxCell>
        <mxCell id="PxSqtdrrt_EEmlgIxpEL-5" value="" style="endArrow=classic;html=1;entryX=0;entryY=1;entryDx=0;entryDy=-15;entryPerimeter=0;strokeColor=#00FF00;" edge="1" parent="1" target="PxSqtdrrt_EEmlgIxpEL-1">
          <mxGeometry width="50" height="50" relative="1" as="geometry">
            <mxPoint x="514" y="420" as="sourcePoint" />
            <mxPoint x="564" y="370" as="targetPoint" />
          </mxGeometry>
        </mxCell>
        <mxCell id="PxSqtdrrt_EEmlgIxpEL-6" value="" style="endArrow=classic;html=1;fillColor=#f8cecc;rounded=1;strokeColor=#00FF00;" edge="1" parent="1">
          <mxGeometry width="50" height="50" relative="1" as="geometry">
            <mxPoint x="730" y="380" as="sourcePoint" />
            <mxPoint x="514" y="340" as="targetPoint" />
          </mxGeometry>
        </mxCell>
        <mxCell id="PxSqtdrrt_EEmlgIxpEL-8" value="View Material List" style="ellipse;whiteSpace=wrap;html=1;fillColor=none;" vertex="1" parent="1">
          <mxGeometry x="414" y="450" width="100" height="40" as="geometry" />
        </mxCell>
        <mxCell id="PxSqtdrrt_EEmlgIxpEL-9" value="" style="endArrow=classic;html=1;fillColor=#f8cecc;strokeColor=#00FF00;entryX=1;entryY=0.5;entryDx=0;entryDy=0;exitX=0.145;exitY=1;exitDx=0;exitDy=-4.35;exitPerimeter=0;" edge="1" parent="1" source="PxSqtdrrt_EEmlgIxpEL-1" target="PxSqtdrrt_EEmlgIxpEL-8">
          <mxGeometry width="50" height="50" relative="1" as="geometry">
            <mxPoint x="730" y="380" as="sourcePoint" />
            <mxPoint x="514" y="340" as="targetPoint" />
          </mxGeometry>
        </mxCell>
        <mxCell id="PxSqtdrrt_EEmlgIxpEL-10" value="" style="endArrow=classic;html=1;entryX=0;entryY=0.5;entryDx=0;entryDy=0;" edge="1" parent="1" target="PxSqtdrrt_EEmlgIxpEL-8">
          <mxGeometry width="50" height="50" relative="1" as="geometry">
            <mxPoint x="160" y="520" as="sourcePoint" />
            <mxPoint x="424" y="430" as="targetPoint" />
          </mxGeometry>
        </mxCell>
      </root>
    </mxGraphModel>
  </diagram>
</mxfile>
